<mxfile host="app.diagrams.net" modified="2023-06-24T13:59:29.192Z" agent="Mozilla/5.0 (Windows NT 10.0; Win64; x64) AppleWebKit/537.36 (KHTML, like Gecko) Chrome/114.0.0.0 Safari/537.36" etag="UuSpd2l_ERaUUkzqFTVg" version="21.3.7" type="google">
  <diagram name="Page-1" id="yVTdsGJmrEbIhVxGKnhz">
    <mxGraphModel grid="1" page="1" gridSize="10" guides="1" tooltips="1" connect="1" arrows="1" fold="1" pageScale="1" pageWidth="1100" pageHeight="850" math="0" shadow="0">
      <root>
        <mxCell id="0" />
        <mxCell id="1" parent="0" />
        <mxCell id="pqMYUoFs46xxA3ZlQW7h-1" value="" style="ellipse;whiteSpace=wrap;html=1;" vertex="1" parent="1">
          <mxGeometry x="260" y="70" width="370" height="460" as="geometry" />
        </mxCell>
        <mxCell id="pqMYUoFs46xxA3ZlQW7h-8" style="edgeStyle=orthogonalEdgeStyle;rounded=0;orthogonalLoop=1;jettySize=auto;html=1;" edge="1" parent="1" source="pqMYUoFs46xxA3ZlQW7h-2" target="pqMYUoFs46xxA3ZlQW7h-4">
          <mxGeometry relative="1" as="geometry" />
        </mxCell>
        <mxCell id="pqMYUoFs46xxA3ZlQW7h-2" value="Start Program" style="ellipse;whiteSpace=wrap;html=1;gradientColor=#3650FF;fillColor=#57FF3D;" vertex="1" parent="1">
          <mxGeometry x="320" y="130" width="120" height="80" as="geometry" />
        </mxCell>
        <mxCell id="pqMYUoFs46xxA3ZlQW7h-9" style="edgeStyle=orthogonalEdgeStyle;rounded=0;orthogonalLoop=1;jettySize=auto;html=1;" edge="1" parent="1" source="pqMYUoFs46xxA3ZlQW7h-4" target="pqMYUoFs46xxA3ZlQW7h-5">
          <mxGeometry relative="1" as="geometry" />
        </mxCell>
        <mxCell id="pqMYUoFs46xxA3ZlQW7h-4" value="SET message&lt;br&gt;&quot;Hello World&quot;" style="shape=process;whiteSpace=wrap;html=1;backgroundOutline=1;gradientColor=#3650FF;fillColor=#3650FF;" vertex="1" parent="1">
          <mxGeometry x="450" y="240" width="120" height="60" as="geometry" />
        </mxCell>
        <mxCell id="pqMYUoFs46xxA3ZlQW7h-10" style="edgeStyle=orthogonalEdgeStyle;rounded=0;orthogonalLoop=1;jettySize=auto;html=1;" edge="1" parent="1" source="pqMYUoFs46xxA3ZlQW7h-5" target="pqMYUoFs46xxA3ZlQW7h-7">
          <mxGeometry relative="1" as="geometry" />
        </mxCell>
        <mxCell id="pqMYUoFs46xxA3ZlQW7h-15" style="edgeStyle=orthogonalEdgeStyle;rounded=0;orthogonalLoop=1;jettySize=auto;html=1;" edge="1" parent="1" source="pqMYUoFs46xxA3ZlQW7h-5">
          <mxGeometry relative="1" as="geometry">
            <mxPoint x="125" y="340" as="targetPoint" />
            <Array as="points">
              <mxPoint x="225" y="360" />
              <mxPoint x="225" y="390" />
              <mxPoint x="125" y="390" />
            </Array>
          </mxGeometry>
        </mxCell>
        <mxCell id="pqMYUoFs46xxA3ZlQW7h-5" value="ECHO message" style="shape=parallelogram;perimeter=parallelogramPerimeter;whiteSpace=wrap;html=1;fixedSize=1;gradientColor=#FF45BB;fillColor=#FF45BB;" vertex="1" parent="1">
          <mxGeometry x="310" y="330" width="120" height="60" as="geometry" />
        </mxCell>
        <mxCell id="pqMYUoFs46xxA3ZlQW7h-7" value="End Program" style="ellipse;whiteSpace=wrap;html=1;gradientColor=#FF350D;fillColor=#FF45BB;" vertex="1" parent="1">
          <mxGeometry x="450" y="410" width="120" height="80" as="geometry" />
        </mxCell>
        <mxCell id="pqMYUoFs46xxA3ZlQW7h-13" style="edgeStyle=orthogonalEdgeStyle;rounded=0;orthogonalLoop=1;jettySize=auto;html=1;entryX=0;entryY=0.5;entryDx=0;entryDy=0;" edge="1" parent="1" target="pqMYUoFs46xxA3ZlQW7h-2">
          <mxGeometry relative="1" as="geometry">
            <mxPoint x="125" y="280" as="sourcePoint" />
            <Array as="points">
              <mxPoint x="125" y="170" />
            </Array>
          </mxGeometry>
        </mxCell>
      </root>
    </mxGraphModel>
  </diagram>
</mxfile>
